<svg width="350" height="79" viewBox="0 0 350 79" fill="none" xmlns="http://www.w3.org/2000/svg">
<path fill-rule="evenodd" clip-rule="evenodd" d="M208.304 0.16272H337.889C344.578 0.16272 350 5.6105 350 12.3307V56.1354C350 62.8556 344.578 68.3033 337.889 68.3033H208.304C201.616 68.3033 196.194 62.8556 196.194 56.1354V12.3307C196.194 5.6105 201.616 0.16272 208.304 0.16272ZM238.505 47.0431C238.505 46.1688 238.17 45.3453 237.5 44.5726C236.831 43.7999 235.989 43.4136 234.974 43.4136C234.122 43.4136 233.401 43.6779 232.813 44.2066C232.225 44.7353 231.677 45.4673 231.169 46.4026C230.256 47.9886 229.206 49.168 228.019 49.9406C226.832 50.7133 225.407 51.0996 223.743 51.0996C222.505 51.0996 221.369 50.8607 220.334 50.3829C219.299 49.905 218.416 49.2035 217.686 48.2784C216.955 47.3532 216.397 46.2349 216.012 44.9233C215.626 43.6118 215.433 42.1733 215.433 40.6076C215.433 37.2729 216.184 34.6448 217.686 32.7233C219.187 30.8018 221.166 29.841 223.621 29.841C225.325 29.841 226.731 30.2273 227.836 31C228.942 31.7727 230.003 32.9317 231.017 34.477C231.585 35.27 232.098 35.8445 232.554 36.2003C233.011 36.5561 233.584 36.734 234.274 36.734C235.329 36.734 236.227 36.3884 236.968 35.697C237.708 35.0057 238.079 34.1619 238.079 33.1655C238.079 32.1895 237.749 31.1373 237.089 30.0088C236.43 28.8802 235.476 27.8178 234.228 26.8215C232.98 25.8251 231.459 25.0118 229.663 24.3815C227.867 23.7511 225.894 23.436 223.743 23.436C220.273 23.436 217.29 24.1527 214.794 25.5862C212.298 27.0197 210.391 29.048 209.072 31.671C207.753 34.294 207.093 37.3135 207.093 40.7296C207.093 45.7723 208.534 49.7932 211.415 52.7924C214.297 55.7916 218.304 57.2912 223.438 57.2912C225.853 57.2912 228.024 56.9658 229.952 56.3152C231.88 55.6645 233.478 54.8054 234.746 53.7379C236.014 52.6704 236.958 51.547 237.576 50.3676C238.195 49.1883 238.505 48.0801 238.505 47.0431ZM266.751 52.6551C267.684 54.1802 268.567 55.3442 269.399 56.1474C270.231 56.9506 271.073 57.3522 271.925 57.3522C272.94 57.3522 273.848 57.0014 274.649 56.2999C275.451 55.5984 275.851 54.8207 275.851 53.9667C275.851 53.4786 275.593 52.3857 275.075 50.6879C274.558 48.99 274.299 47.3583 274.299 45.7926C274.319 44.1253 274.335 42.6104 274.345 41.2481C274.355 39.8857 274.36 38.2286 274.36 36.2765C274.36 33.1858 273.929 30.7052 273.066 28.8345C272.204 26.9638 270.728 25.5964 268.638 24.7322C266.548 23.868 263.676 23.436 260.024 23.436C256.757 23.436 254.028 23.8833 251.836 24.778C249.645 25.6727 248.032 26.8113 246.997 28.194C245.962 29.5767 245.444 31 245.444 32.464C245.444 33.3994 245.784 34.1669 246.464 34.7668C247.144 35.3666 247.95 35.6665 248.884 35.6665C249.919 35.6665 250.593 35.4785 250.908 35.1023C251.223 34.7261 251.76 33.9484 252.521 32.769C253.282 31.5897 254.195 30.7052 255.261 30.1155C256.326 29.5258 257.914 29.231 260.024 29.231C262.479 29.231 264.098 29.7444 264.879 30.7713C265.66 31.7981 266.101 33.4095 266.203 35.6055C264.458 36.1139 262.839 36.546 261.348 36.9018C259.857 37.2576 258.066 37.649 255.976 38.0761C253.886 38.5031 252.577 38.7776 252.049 38.8996C249.533 39.4486 247.555 40.5262 246.114 42.1326C244.673 43.7389 243.953 45.6808 243.953 47.9581C243.953 49.6458 244.389 51.2115 245.262 52.6551C246.134 54.0988 247.377 55.2426 248.99 56.0864C250.604 56.9303 252.476 57.3522 254.606 57.3522C256.94 57.3522 259.045 56.9608 260.922 56.1779C262.799 55.3951 264.742 54.2208 266.751 52.6551ZM266.203 40.6076V41.7971C266.203 44.6844 265.827 46.7584 265.077 48.0191C264.427 49.1578 263.408 50.088 262.018 50.8099C260.628 51.5317 259.111 51.8926 257.467 51.8926C255.925 51.8926 254.677 51.4504 253.723 50.5659C252.77 49.6814 252.293 48.6088 252.293 47.3481C252.293 46.1281 252.699 45.1775 253.51 44.4963C254.322 43.8152 255.174 43.3577 256.067 43.1238C256.96 42.89 258.568 42.524 260.891 42.0258C263.215 41.5277 264.985 41.0549 266.203 40.6076ZM291.04 45.3351C291.04 42.8341 291.121 40.7143 291.283 38.9758C291.446 37.2373 291.74 35.7377 292.166 34.477C292.592 33.2164 293.191 32.2658 293.962 31.6253C294.733 30.9848 295.727 30.6645 296.945 30.6645C297.837 30.6645 298.867 30.8526 300.034 31.2288C301.201 31.6049 301.936 31.793 302.241 31.793C303.052 31.793 303.808 31.4626 304.508 30.8018C305.208 30.1409 305.558 29.3022 305.558 28.2855C305.558 26.8418 304.737 25.6828 303.093 24.8085C301.449 23.9341 299.755 23.497 298.01 23.497C296.265 23.497 294.87 23.9341 293.825 24.8085C292.78 25.6828 291.76 26.974 290.766 28.682C290.705 26.974 290.37 25.6828 289.761 24.8085C289.153 23.9341 288.158 23.497 286.778 23.497C284.08 23.497 282.73 25.3676 282.73 29.109V52.2891C282.73 53.9565 283.116 55.2172 283.887 56.0712C284.658 56.9252 285.642 57.3522 286.839 57.3522C288.057 57.3522 289.061 56.9303 289.853 56.0864C290.644 55.2426 291.04 53.9768 291.04 52.2891V45.3351ZM331.247 52.5941C331.247 54.1192 331.618 55.2934 332.358 56.1169C333.099 56.9404 334.038 57.3522 335.174 57.3522C336.331 57.3522 337.274 56.9557 338.005 56.1627C338.735 55.3697 339.1 54.1802 339.1 52.5941V15.8719C339.1 14.3062 338.76 13.1218 338.081 12.3186C337.401 11.5155 336.432 11.1139 335.174 11.1139C333.916 11.1139 332.947 11.5511 332.267 12.4254C331.587 13.2997 331.247 14.5909 331.247 16.2989V28.5905C329.685 26.8825 328.082 25.6167 326.438 24.7932C324.795 23.9697 322.776 23.558 320.381 23.558C316.242 23.558 312.904 25.0118 310.367 27.9195C307.831 30.8272 306.563 34.8837 306.563 40.0891C306.563 42.5494 306.882 44.8369 307.522 46.9516C308.161 49.0663 309.099 50.9065 310.337 52.4721C311.575 54.0378 313.041 55.2426 314.735 56.0864C316.43 56.9303 318.271 57.3522 320.26 57.3522C321.761 57.3522 323.146 57.1438 324.414 56.7269C325.683 56.3101 326.859 55.7001 327.945 54.8969C329.031 54.0937 330.131 53.0517 331.247 51.7706V52.5941ZM314.903 40.3636C314.903 38.2285 315.232 36.3528 315.892 34.7363C316.551 33.1198 317.48 31.8794 318.677 31.0153C319.874 30.1511 321.234 29.719 322.755 29.719C324.216 29.719 325.561 30.1409 326.788 30.9848C328.016 31.8286 328.99 33.0486 329.71 34.6448C330.431 36.241 330.791 38.1472 330.791 40.3636C330.791 42.7223 330.431 44.6895 329.71 46.2654C328.99 47.8412 328.026 49.0104 326.819 49.7729C325.611 50.5354 324.277 50.9166 322.816 50.9166C321.376 50.9166 320.047 50.5151 318.829 49.7119C317.611 48.9087 316.653 47.7141 315.953 46.1281C315.253 44.5421 314.903 42.6206 314.903 40.3636Z" fill="white"/>
<path d="M181.879 29.0845C181.869 29.5852 182.267 29.9987 182.765 30.0066C183.263 30.0161 183.675 29.6167 183.683 29.116C183.692 28.6154 183.295 28.2019 182.797 28.1939C182.298 28.1845 181.887 28.5839 181.879 29.0845Z" fill="#5FB963"/>
<path d="M180.538 3.34742C179.932 4.66208 179.375 6.50766 178.883 8.83296C177.916 13.4081 177.303 19.4136 177.2 25.31C177.091 31.572 177.525 40.1729 178.557 45.1251C177.494 45.7996 176.822 46.9546 176.799 48.2582C176.778 49.4619 177.322 50.5448 178.185 51.2532L175.798 56.3652C175.672 56.6344 175.68 56.9475 175.819 57.2098L181.281 67.5557C181.282 67.5573 181.283 67.5587 181.283 67.5605L181.286 67.5647C181.287 67.5668 181.288 67.5689 181.29 67.5713C181.642 68.2238 182.575 68.2345 182.938 67.5839L188.758 57.4356C188.913 57.1656 188.925 56.8366 188.792 56.5556L186.405 51.5424C187.431 50.857 188.068 49.7231 188.091 48.4545C188.113 47.167 187.475 45.9696 186.444 45.2616C187.648 40.3482 188.382 31.7682 188.491 25.5072C188.594 19.6106 188.191 13.5873 187.384 8.98127C186.974 6.64024 186.482 4.77637 185.922 3.44161C185.653 2.80185 184.835 0.854713 183.275 0.827751C181.714 0.800257 180.829 2.71769 180.538 3.34742ZM186.88 56.9229L183.122 63.4755L183.237 56.8819C183.246 56.3595 182.833 55.9289 182.313 55.9198C181.793 55.9107 181.365 56.3267 181.355 56.8488L181.24 63.4424L177.701 56.7406L179.871 52.0948C184.715 52.179 179.755 52.0927 184.621 52.1776L186.88 56.9229ZM186.21 48.4214C186.19 49.4644 185.337 50.2972 184.294 50.2803L180.529 50.2147C179.492 50.1968 178.663 49.3333 178.68 48.2916C178.695 47.4684 179.229 46.7868 179.943 46.5369C180.493 46.3459 180.603 46.4677 184.36 46.4983C185.416 46.5167 186.227 47.3979 186.21 48.4214Z" fill="white"/>
<path fill-rule="evenodd" clip-rule="evenodd" d="M30.2853 54.8926C30.2853 57.2515 29.6917 59.3709 28.5046 61.2509C27.3174 63.1309 25.58 64.6029 23.2924 65.6671C21.0047 66.7312 18.2925 67.2633 15.1556 67.2633C11.3949 67.2633 8.29272 66.5361 5.84909 65.0818C4.11602 64.0354 2.70792 62.6387 1.62475 60.8917C0.541577 59.1447 0 57.4466 0 55.7971C0 54.8394 0.324946 54.0191 0.974849 53.3363C1.62475 52.6535 2.45228 52.3121 3.45746 52.3121C4.27201 52.3121 4.96089 52.5781 5.52414 53.1102C6.08739 53.6422 6.56831 54.4315 6.96692 55.4779C7.45218 56.7194 7.97642 57.7569 8.53967 58.5905C9.10292 59.4241 9.89579 60.1113 10.9183 60.6523C11.9408 61.1932 13.2839 61.4637 14.9477 61.4637C17.2353 61.4637 19.094 60.9183 20.5238 59.8276C21.9536 58.7368 22.6685 57.3756 22.6685 55.7439C22.6685 54.4492 22.2829 53.3984 21.5117 52.5914C20.7404 51.7844 19.7439 51.1681 18.5221 50.7424C17.3003 50.3168 15.6669 49.8645 13.6219 49.3857C10.8836 48.7294 8.59167 47.9624 6.74595 47.0845C4.90023 46.2065 3.4358 45.0094 2.35263 43.493C1.26946 41.9766 0.727887 40.0922 0.727887 37.8397C0.727887 35.6937 1.29979 33.7871 2.44362 32.1199C3.58745 30.4528 5.24251 29.1714 7.40885 28.2757C9.57519 27.3801 12.1228 26.9323 15.0517 26.9323C17.3913 26.9323 19.4146 27.2293 21.1217 27.8235C22.8288 28.4176 24.2456 29.2069 25.3721 30.1912C26.4986 31.1755 27.3218 32.2086 27.8417 33.2905C28.3616 34.3724 28.6216 35.4277 28.6216 36.4563C28.6216 37.3963 28.2966 38.2432 27.6467 38.997C26.9968 39.7507 26.1866 40.1276 25.2161 40.1276C24.3322 40.1276 23.6607 39.9015 23.2014 39.4492C22.7421 38.997 22.2439 38.2565 21.7066 37.2278C21.0134 35.7558 20.1815 34.6074 19.211 33.7827C18.2405 32.958 16.6808 32.5456 14.5317 32.5456C12.5387 32.5456 10.9313 32.9934 9.70949 33.8891C8.48767 34.7847 7.87678 35.8622 7.87678 37.1214C7.87678 37.9018 8.08474 38.5757 8.50068 39.1433C8.91662 39.7108 9.48852 40.1986 10.2164 40.6065C10.9443 41.0144 11.6808 41.3336 12.4261 41.5642C13.1713 41.7948 14.4018 42.1318 16.1175 42.5752C18.2665 43.0895 20.2119 43.657 21.9536 44.2778C23.6953 44.8985 25.1771 45.6523 26.3989 46.5391C27.6207 47.4259 28.5739 48.5476 29.2585 49.9044C29.943 51.2612 30.2853 52.9239 30.2853 54.8926ZM43.4392 41.8569V62.8471C43.4392 64.3014 43.1013 65.401 42.4254 66.1459C41.7495 66.8908 40.8917 67.2633 39.8518 67.2633C38.812 67.2633 37.9671 66.882 37.3172 66.1193C36.6673 65.3567 36.3424 64.2659 36.3424 62.8471V42.0697C36.3424 40.6331 36.6673 39.5512 37.3172 38.824C37.9671 38.0969 38.812 37.7333 39.8518 37.7333C40.8917 37.7333 41.7495 38.0969 42.4254 38.824C43.1013 39.5512 43.4392 40.5621 43.4392 41.8569ZM39.9298 34.3546C38.9419 34.3546 38.0971 34.0443 37.3952 33.4235C36.6933 32.8028 36.3424 31.9249 36.3424 30.7898C36.3424 29.7611 36.702 28.9142 37.4212 28.2491C38.1404 27.584 38.9766 27.2515 39.9298 27.2515C40.8483 27.2515 41.6629 27.553 42.3734 28.156C43.084 28.759 43.4392 29.6369 43.4392 30.7898C43.4392 31.9071 43.0926 32.7806 42.3994 33.4102C41.7062 34.0398 40.883 34.3546 39.9298 34.3546ZM76.8701 43.054V64.1506C76.8701 66.5627 76.6188 68.6378 76.1162 70.3759C75.6136 72.114 74.8077 73.5506 73.6985 74.6857C72.5894 75.8208 71.138 76.6632 69.3442 77.213C67.5505 77.7628 65.3192 78.0377 62.6503 78.0377C60.2066 78.0377 58.023 77.6874 56.0993 76.9869C54.1756 76.2863 52.6938 75.3818 51.654 74.2733C50.6141 73.1648 50.0942 72.0253 50.0942 70.8548C50.0942 69.968 50.3888 69.2452 50.9781 68.6866C51.5673 68.1279 52.2779 67.8485 53.1097 67.8485C54.1496 67.8485 55.0594 68.3185 55.8393 69.2585C56.2206 69.7374 56.6149 70.2207 57.0221 70.7084C57.4294 71.1962 57.88 71.613 58.3739 71.9588C58.8679 72.3046 59.4614 72.5618 60.1547 72.7303C60.8479 72.8988 61.6451 72.983 62.5463 72.983C64.3833 72.983 65.8088 72.7214 66.8226 72.1982C67.8365 71.675 68.547 70.9434 68.9543 70.0034C69.3616 69.0634 69.5999 68.0569 69.6692 66.9839C69.7385 65.9109 69.7905 64.1861 69.8252 61.8095C68.7333 63.3703 67.4725 64.5586 66.0427 65.3744C64.613 66.1903 62.9102 66.5982 60.9345 66.5982C58.5602 66.5982 56.4849 65.9774 54.7085 64.7359C52.9321 63.4944 51.5673 61.7563 50.6141 59.5216C49.6609 57.2869 49.1844 54.7064 49.1844 51.78C49.1844 49.5985 49.4746 47.6298 50.0552 45.874C50.6358 44.1181 51.4633 42.6372 52.5378 41.4312C53.6123 40.2252 54.8515 39.3162 56.2553 38.7043C57.659 38.0924 59.2015 37.7865 60.8825 37.7865C62.8929 37.7865 64.6346 38.1811 66.1077 38.9704C67.5808 39.7596 68.9499 40.9967 70.2151 42.6816V41.6972C70.2151 40.438 70.5184 39.4625 71.1249 38.7708C71.7315 38.0791 72.5114 37.7333 73.4646 37.7333C74.8337 37.7333 75.7436 38.19 76.1942 39.1034C76.6448 40.0168 76.8701 41.3336 76.8701 43.054ZM56.3073 52.2589C56.3073 55.203 56.9355 57.4288 58.192 58.9363C59.4484 60.4439 61.0732 61.1977 63.0662 61.1977C64.2447 61.1977 65.3582 60.874 66.4067 60.2266C67.4552 59.5793 68.3087 58.6038 68.9673 57.3002C69.6259 55.9966 69.9551 54.4138 69.9551 52.5515C69.9551 49.5896 69.3182 47.284 68.0444 45.6346C66.7706 43.9851 65.0939 43.1604 63.0142 43.1604C60.9865 43.1604 59.3618 43.9497 58.14 45.5281C56.9182 47.1066 56.3073 49.3502 56.3073 52.2589ZM97.4069 60.7188L91.2978 35.8711V62.7939C91.2978 64.2837 90.9729 65.401 90.323 66.1459C89.6731 66.8908 88.8109 67.2633 87.7364 67.2633C86.6965 67.2633 85.8473 66.8953 85.1888 66.1592C84.5302 65.4232 84.2009 64.3014 84.2009 62.7939V31.9337C84.2009 30.2311 84.6342 29.0827 85.5007 28.4886C86.3672 27.8944 87.5371 27.5973 89.0102 27.5973H91.4018C92.8403 27.5973 93.8844 27.7304 94.5343 27.9964C95.1842 28.2624 95.6651 28.7413 95.9771 29.433C96.289 30.1247 96.6443 31.2509 97.0429 32.8116L102.58 54.1743L108.117 32.8116C108.516 31.2509 108.871 30.1247 109.183 29.433C109.495 28.7413 109.976 28.2624 110.626 27.9964C111.276 27.7304 112.32 27.5973 113.758 27.5973H116.15C117.623 27.5973 118.793 27.8944 119.659 28.4886C120.526 29.0827 120.959 30.2311 120.959 31.9337V62.7939C120.959 64.2837 120.634 65.401 119.984 66.1459C119.334 66.8908 118.464 67.2633 117.372 67.2633C116.349 67.2633 115.509 66.8908 114.85 66.1459C114.192 65.401 113.862 64.2837 113.862 62.7939V35.8711L107.753 60.7188C107.355 62.3327 107.03 63.5166 106.778 64.2704C106.527 65.0241 106.064 65.7114 105.388 66.3321C104.712 66.9529 103.776 67.2633 102.58 67.2633C101.679 67.2633 100.916 67.0637 100.292 66.6647C99.6685 66.2656 99.1833 65.7557 98.8366 65.135C98.49 64.5142 98.2171 63.827 98.0178 63.0732C97.8185 62.3194 97.6148 61.5346 97.4069 60.7188ZM146.331 63.1663C144.616 64.532 142.956 65.5562 141.353 66.239C139.75 66.9219 137.952 67.2633 135.959 67.2633C134.139 67.2633 132.54 66.8953 131.163 66.1592C129.785 65.4232 128.723 64.4256 127.978 63.1663C127.233 61.9071 126.86 60.5414 126.86 59.0694C126.86 57.083 127.476 55.3892 128.706 53.9881C129.936 52.587 131.626 51.647 133.775 51.1681C134.226 51.0617 135.344 50.8223 137.129 50.4498C138.914 50.0774 140.443 49.7359 141.717 49.4256C142.991 49.1152 144.373 48.7383 145.863 48.2949C145.777 46.3795 145.4 44.9739 144.733 44.0783C144.065 43.1826 142.683 42.7348 140.586 42.7348C138.784 42.7348 137.428 42.9919 136.518 43.5063C135.608 44.0206 134.828 44.7921 134.178 45.8208C133.528 46.8495 133.069 47.5278 132.8 47.856C132.532 48.1841 131.955 48.3481 131.072 48.3481C130.274 48.3481 129.586 48.0865 129.005 47.5633C128.424 47.0401 128.134 46.3706 128.134 45.5548C128.134 44.2778 128.576 43.0363 129.46 41.8303C130.344 40.6242 131.722 39.631 133.593 38.8507C135.465 38.0703 137.796 37.6801 140.586 37.6801C143.706 37.6801 146.158 38.057 147.943 38.8107C149.728 39.5645 150.989 40.7572 151.725 42.3889C152.462 44.0206 152.83 46.1844 152.83 48.8802C152.83 50.5828 152.826 52.0283 152.817 53.2166C152.809 54.4049 152.796 55.7262 152.778 57.1805C152.778 58.5462 152.999 59.9694 153.441 61.4504C153.883 62.9313 154.104 63.8846 154.104 64.3103C154.104 65.0552 153.762 65.7336 153.077 66.3454C152.393 66.9573 151.617 67.2633 150.751 67.2633C150.023 67.2633 149.303 66.913 148.593 66.2124C147.882 65.5119 147.128 64.4965 146.331 63.1663ZM145.863 52.6579C144.823 53.0481 143.311 53.4604 141.327 53.895C139.343 54.3295 137.969 54.6487 137.207 54.8527C136.444 55.0567 135.716 55.4557 135.023 56.0499C134.33 56.644 133.983 57.4731 133.983 58.5373C133.983 59.6369 134.39 60.5725 135.205 61.344C136.02 62.1155 137.085 62.5012 138.402 62.5012C139.806 62.5012 141.102 62.1864 142.289 61.5568C143.476 60.9272 144.347 60.1158 144.901 59.1226C145.543 58.023 145.863 56.2139 145.863 53.6954V52.6579ZM167.128 41.8569V62.8471C167.128 64.3014 166.79 65.401 166.114 66.1459C165.438 66.8908 164.58 67.2633 163.541 67.2633C162.501 67.2633 161.656 66.882 161.006 66.1193C160.356 65.3567 160.031 64.2659 160.031 62.8471V42.0697C160.031 40.6331 160.356 39.5512 161.006 38.824C161.656 38.0969 162.501 37.7333 163.541 37.7333C164.58 37.7333 165.438 38.0969 166.114 38.824C166.79 39.5512 167.128 40.5621 167.128 41.8569ZM163.619 34.3546C162.631 34.3546 161.786 34.0443 161.084 33.4235C160.382 32.8028 160.031 31.9249 160.031 30.7898C160.031 29.7611 160.391 28.9142 161.11 28.2491C161.829 27.584 162.665 27.2515 163.619 27.2515C164.537 27.2515 165.352 27.553 166.062 28.156C166.773 28.759 167.128 29.6369 167.128 30.7898C167.128 31.9071 166.781 32.7806 166.088 33.4102C165.395 34.0398 164.572 34.3546 163.619 34.3546Z" fill="white"/>
<path fill-rule="evenodd" clip-rule="evenodd" d="M133.416 12.0014V18.707C133.416 19.7661 133.175 20.5605 132.692 21.09C132.209 21.6196 131.572 21.8844 130.78 21.8844C130.013 21.8844 129.391 21.6196 128.914 21.09C128.438 20.5605 128.2 19.7661 128.2 18.707V10.6713C128.2 9.40287 128.156 8.41767 128.07 7.7157C127.983 7.01372 127.748 6.43799 127.364 5.98849C126.98 5.53898 126.374 5.31423 125.545 5.31423C123.886 5.31423 122.794 5.88072 122.268 7.01373C121.742 8.14673 121.479 9.77233 121.479 11.8906V18.707C121.479 19.7538 121.241 20.5451 120.765 21.0808C120.288 21.6165 119.66 21.8844 118.88 21.8844C118.113 21.8844 117.485 21.6165 116.996 21.0808C116.507 20.5451 116.263 19.7538 116.263 18.707V4.27975C116.263 3.33147 116.483 2.61104 116.922 2.11843C117.361 1.62582 117.94 1.37952 118.658 1.37952C119.351 1.37952 119.929 1.61042 120.393 2.07225C120.858 2.53407 121.09 3.17138 121.09 3.98418V4.46448C121.968 3.41768 122.909 2.64799 123.911 2.15538C124.914 1.66276 126.028 1.41646 127.253 1.41646C128.527 1.41646 129.623 1.66892 130.539 2.17385C131.454 2.67877 132.209 3.44231 132.803 4.46448C133.657 3.42999 134.573 2.66338 135.551 2.16461C136.529 1.66584 137.611 1.41646 138.799 1.41646C140.186 1.41646 141.38 1.68739 142.382 2.22927C143.385 2.77114 144.134 3.54699 144.629 4.55684C145.062 5.46817 145.278 6.90288 145.278 8.86101V18.707C145.278 19.7661 145.037 20.5605 144.554 21.09C144.072 21.6196 143.434 21.8844 142.642 21.8844C141.875 21.8844 141.247 21.6165 140.758 21.0808C140.269 20.5451 140.025 19.7538 140.025 18.707V10.228C140.025 9.14425 139.978 8.27604 139.885 7.62333C139.793 6.97062 139.542 6.4226 139.134 5.97925C138.725 5.5359 138.106 5.31423 137.277 5.31423C136.609 5.31423 135.975 5.51127 135.374 5.90536C134.774 6.29945 134.307 6.829 133.973 7.49402C133.602 8.34378 133.416 9.84622 133.416 12.0014ZM154.876 22.5124L155.34 21.3856L149.102 5.75758C148.719 4.85856 148.527 4.20586 148.527 3.79946C148.527 3.36842 148.638 2.96818 148.861 2.59872C149.084 2.22926 149.39 1.9337 149.78 1.71203C150.17 1.49035 150.575 1.37952 150.996 1.37952C151.726 1.37952 152.277 1.61042 152.648 2.07225C153.019 2.53407 153.347 3.19601 153.632 4.05808L157.92 16.4718L161.986 4.9263C162.308 3.99034 162.598 3.25759 162.858 2.72803C163.118 2.19848 163.394 1.84134 163.684 1.65661C163.975 1.47188 164.387 1.37952 164.919 1.37952C165.303 1.37952 165.671 1.48112 166.023 1.68432C166.376 1.88752 166.648 2.16153 166.84 2.50636C167.032 2.85119 167.128 3.21448 167.128 3.59626C167.078 3.83025 166.998 4.16275 166.887 4.59379C166.775 5.02482 166.639 5.46201 166.478 5.90536L159.87 23.122C159.3 24.6368 158.743 25.8252 158.199 26.6873C157.654 27.5494 156.933 28.2113 156.036 28.6731C155.139 29.1349 153.929 29.3658 152.407 29.3658C150.922 29.3658 149.808 29.2057 149.065 28.8856C148.323 28.5654 147.952 27.9804 147.952 27.1306C147.952 26.5518 148.128 26.1054 148.481 25.7914C148.833 25.4773 149.356 25.3203 150.049 25.3203C150.321 25.3203 150.588 25.3572 150.847 25.4311C151.169 25.505 151.448 25.542 151.683 25.542C152.265 25.542 152.722 25.4558 153.057 25.2834C153.391 25.1109 153.691 24.8123 153.957 24.3874C154.223 23.9625 154.529 23.3376 154.876 22.5124Z" fill="white"/>
</svg>
