<svg width="322" height="104" viewBox="0 0 322 104" fill="none" xmlns="http://www.w3.org/2000/svg">
<path d="M64.7466 12.2804L52.599 33.2998L40.4519 12.2804H0L52.599 103.298L105.198 12.2804H64.7466Z" fill="#41B883"/>
<path d="M64.7465 12.2803L52.599 33.2998L40.4518 12.2803H21.0396L52.599 66.8896L84.1582 12.2803H64.7465Z" fill="#34495E"/>
<path d="M321.427 15.2572L273.246 101.738C272.251 103.523 269.695 103.534 268.686 101.757L219.549 15.2655C218.449 13.3292 220.098 10.9838 222.284 11.376L270.517 20.0298C270.825 20.085 271.14 20.0845 271.448 20.0282L318.673 11.3884C320.851 10.9899 322.508 13.3171 321.427 15.2572Z" fill="url(#paint0_linear_201_71)"/>
<path d="M293.494 0.0253798L257.838 7.03823C257.251 7.15344 256.817 7.65196 256.782 8.25022L254.589 45.433C254.538 46.3087 255.339 46.9884 256.191 46.7913L266.118 44.4917C267.046 44.2767 267.885 45.0978 267.694 46.0353L264.745 60.532C264.547 61.5079 265.459 62.3422 266.409 62.0526L272.54 60.1823C273.49 59.8927 274.404 60.7299 274.203 61.7058L269.516 84.4771C269.222 85.9016 271.11 86.6782 271.897 85.4566L272.423 84.6411L301.477 26.4405C301.964 25.4659 301.125 24.3548 300.059 24.5613L289.84 26.5409C288.88 26.7267 288.063 25.829 288.334 24.8861L295.003 1.67932C295.275 0.734675 294.455 -0.163665 293.494 0.0253798Z" fill="url(#paint1_linear_201_71)"/>
<g clip-path="url(#clip0_201_71)">
<path d="M199.214 11H125.183C120.221 11 116.198 15.0224 116.198 19.9844V94.0156C116.198 98.9776 120.221 103 125.183 103H199.214C204.176 103 208.198 98.9776 208.198 94.0156V19.9844C208.198 15.0224 204.176 11 199.214 11Z" fill="#3178C6"/>
<path fill-rule="evenodd" clip-rule="evenodd" d="M173.159 84.1329V93.1172C174.615 93.8719 176.394 94.4289 178.37 94.8063C180.347 95.1836 182.503 95.3633 184.659 95.3633C186.816 95.3633 188.792 95.1657 190.769 94.7524C192.745 94.3391 194.362 93.6563 195.8 92.7758C197.255 91.8235 198.495 90.6196 199.214 89.0024C199.933 87.3852 200.49 85.5883 200.49 83.2524C200.49 81.6172 200.238 80.1977 199.753 78.9399C199.268 77.6821 198.567 76.6039 197.597 75.7055C196.68 74.7532 195.62 73.9086 194.362 73.1899C193.105 72.4711 191.667 71.7164 190.05 71.0336C188.864 70.5485 187.894 70.0813 186.816 69.6141C185.881 69.1469 185.073 68.6797 184.48 68.2125C183.815 67.7274 183.312 67.2243 182.952 66.7032C182.593 66.1641 182.413 65.5711 182.413 64.9063C182.413 64.2954 182.573 63.7383 182.898 63.2352C183.224 62.7321 183.671 62.3188 184.246 61.9594C184.821 61.6 185.54 61.3305 186.402 61.1329C187.247 60.9352 188.181 60.8454 189.277 60.8454C190.032 60.8454 190.823 60.9011 191.613 61.0143C192.44 61.1275 193.284 61.3018 194.129 61.5353C194.973 61.7689 195.8 62.0564 196.645 62.4158C197.435 62.7752 198.172 63.1885 198.801 63.6557V55.2103C197.435 54.6893 195.926 54.2939 194.309 54.0424C192.691 53.7908 190.895 53.665 188.738 53.665C186.582 53.665 184.605 53.8986 182.629 54.3479C180.652 54.7971 179.035 55.5158 177.598 56.5041C176.142 57.4744 175.082 58.6603 174.184 60.2775C173.339 61.7869 172.926 63.5119 172.926 65.6682C172.926 68.3635 173.698 70.6994 175.262 72.4963C176.807 74.4728 179.215 75.9103 182.27 77.3478C183.509 77.851 184.605 78.3541 185.684 78.8393C186.762 79.3244 187.66 79.8275 188.379 80.3486C189.152 80.8697 189.762 81.4447 190.176 82.0557C190.625 82.6666 190.859 83.3854 190.859 84.2119C190.859 84.7869 190.718 85.326 190.445 85.8291C190.172 86.3322 189.745 86.7635 189.17 87.1229C188.595 87.4822 187.894 87.7697 187.013 87.9854C186.169 88.183 185.216 88.2908 183.959 88.2908C181.982 88.2908 180.005 87.9494 178.209 87.2666C176.232 86.5838 174.435 85.5596 172.818 84.2119L173.159 84.1329ZM158.066 62.0313H169.566V54.6641H137.402V62.0313H148.902V94.9141H158.066V62.0313Z" fill="white"/>
</g>
<defs>
<linearGradient id="paint0_linear_201_71" x1="218.349" y1="8.28535" x2="278.606" y2="89.8142" gradientUnits="userSpaceOnUse">
<stop stop-color="#41D1FF"/>
<stop offset="1" stop-color="#BD34FE"/>
</linearGradient>
<linearGradient id="paint1_linear_201_71" x1="267.749" y1="1.92933" x2="278.677" y2="76.6098" gradientUnits="userSpaceOnUse">
<stop stop-color="#FFEA83"/>
<stop offset="0.0833333" stop-color="#FFDD35"/>
<stop offset="1" stop-color="#FFA800"/>
</linearGradient>
<clipPath id="clip0_201_71">
<rect width="92" height="92" fill="white" transform="translate(116.198 11)"/>
</clipPath>
</defs>
</svg>
